<?xml version="1.0" encoding="UTF-8" standalone="no"?>
<!-- Created with Inkscape (http://www.inkscape.org/) -->

<svg xmlns:dc="http://purl.org/dc/elements/1.1/" xmlns:cc="http://creativecommons.org/ns#" xmlns:rdf="http://www.w3.org/1999/02/22-rdf-syntax-ns#" xmlns:svg="http://www.w3.org/2000/svg" xmlns="http://www.w3.org/2000/svg" xmlns:sodipodi="http://sodipodi.sourceforge.net/DTD/sodipodi-0.dtd" xmlns:inkscape="http://www.inkscape.org/namespaces/inkscape" width="60" height="60" viewBox="0 0 60 60" version="1.1" id="svg63623" inkscape:version="0.92.2 (5c3e80d, 2017-08-06)" sodipodi:docname="ushopig iconos 2.svg">
  <defs id="defs63617" />
  <sodipodi:namedview id="base" pagecolor="#b8b8b8" bordercolor="#666666" borderopacity="1.0" inkscape:pageopacity="0" inkscape:pageshadow="2" inkscape:zoom="0.35" inkscape:cx="400" inkscape:cy="560" inkscape:document-units="px" inkscape:current-layer="layer1" showgrid="false" inkscape:showpageshadow="false" units="px" fit-margin-top="0" fit-margin-left="0" fit-margin-right="0" fit-margin-bottom="0" inkscape:window-width="1920" inkscape:window-height="1057" inkscape:window-x="-8" inkscape:window-y="-8" inkscape:window-maximized="1" inkscape:object-paths="true" inkscape:snap-global="false" inkscape:snap-bbox="false" inkscape:bbox-paths="true" inkscape:bbox-nodes="true" showguides="true" inkscape:guide-bbox="true" inkscape:pagecheckerboard="true" />
  <metadata id="metadata63620">
    <rdf:RDF>
      <cc:Work rdf:about="">
        <dc:format>image/svg+xml</dc:format>
        <dc:type rdf:resource="http://purl.org/dc/dcmitype/StillImage" />
        <dc:title></dc:title>
      </cc:Work>
    </rdf:RDF>
  </metadata>
  <g inkscape:label="Layer 1" inkscape:groupmode="layer" id="layer1" transform="translate(-80.13095115,-157.7794983)">
    <g id="g878">
      <path sodipodi:nodetypes="cccsccccccccccccccccccccccc" inkscape:connector-curvature="0" id="rect847" d="m 119.1669447,160.7779885 c -0.3946721,0.9690748 -0.9120738,1.5087862 -1.7167969,2.4472656 0.036317,0.4986686 0.010397,1.0454665 -0.09375,1.71875 -0.1540798,0.9926352 -0.5998704,1.7223311 -1.234375,2.1035157 -0.5219236,0.3135502 -1.1387666,0.3125302 -1.7324219,0.1484375 -1.5551135,2.309868 -3.3213304,3.9316518 -5.5234375,5.2558593 -0.2239443,0.1228779 0.1610511,1.2863087 0.3476563,1.1855469 3.5449278,-2.3204817 5.7141379,-3.1929419 10.0605469,-2.6601562 0.3053927,-2.8497784 1.1405627,-5.9231685 1.5839843,-8.375 0.030521,-0.5572669 -1.5175549,-1.9292505 -1.6914062,-1.8242188 z m -6.4882813,3.25 c -0.8241655,0.3241321 -1.5076168,0.7139666 -2.0605468,1.1621094 -1.6587999,1.3444175 -2.1578441,3.2144641 -1.8789063,5.40625 1.6257032,-1.171752 3.2611902,-2.7555794 4.2597656,-4.2324219 -0.2418773,-0.2803402 -0.4400027,-0.5949155 -0.5117187,-0.9648437 -0.083066,-0.4285473 0.00435,-0.8968958 0.1914062,-1.3710938 z m 12.8066407,8.0234375 c -5.8234486,2.1931295 -6.6743846,-0.4115895 -11.4746094,1.015625 -1.1496574,0.3391801 -2.6157328,1.2669532 -3.3886719,1.7851563 0.8267713,0.6016201 -0.3670557,2.4091411 -0.9257812,1.8613281 -1.2549473,-1.1713741 -2.6439188,-2.4630544 -4.3066407,-1.6113281 -3.6734213,2.5968182 -3.2986797,4.0343761 -8.75781249,4.4921875 -0.0461898,0.7131305 7.38839719,3.2645523 10.58203129,0.5566406 0.748254,-0.4125542 1.7731171,1.1725603 0.9511719,1.5351562 -6.0582094,2.6837319 -6.6372489,9.6709578 -6.2207032,12.328125 l 23.0371094,-20.53125 c 0.089627,-0.3289716 0.4729643,-1.1302023 0.5039063,-1.4316406 z" style="fill:#ff5599;stroke-width:3;stroke-linecap:round;stroke-linejoin:round;paint-order:markers fill stroke" />
      <path id="path4566" transform="translate(80.13095115,157.7794983)" d="M 2.021484375 0.228515625 A 1.555973782 1.555973782 0 0 0 0.490234375 1.806640625 L 0.490234375 58.0625 A 1.555973782 1.555973782 0 0 0 2.044921875 59.6171875 L 58.24023438 59.6171875 A 1.555973782 1.555973782 0 1 0 58.24023438 56.50585938 L 3.60546875 56.50585938 L 13.46289062 42.89648438 L 22.4375 42.32617188 L 52.40039062 12.69335938 L 54.4296875 16.89453125 L 57.76757812 5.287109375 L 45.69140625 9.55859375 L 50.41992188 10.92773438 L 46.70117188 14.08789062 C 46.73801488 12.60890953 46.58563975 12.21016778 45.98046875 12.44335938 C 44.50532085 12.95488098 42.68877743 13.80762423 40.93164062 13.47070312 C 40.98507462 11.08018583 41.85703012 7.6692104 42.38476562 4.9375 C 42.49913613 3.8863034 40.2650199 1.3387907 38.8671875 1.2421875 C 38.5446108 1.2198945 38.26668063 1.328040475 38.07226562 1.615234375 C 37.62187133 2.284587875 37.3110817 3.2508812 36.625 3.7734375 C 36.0713785 3.0479164 34.7365314 3.020134575 34.1171875 3.919921875 C 32.578685 4.191992275 31.0580354 4.858419525 29.765625 5.947265625 C 28.9901808 6.600575525 28.29634495 7.406203725 27.73046875 8.369140625 C 26.79764095 10.22081463 26.52747815 12.89520577 26.95703125 15.11523438 C 25.47068905 14.89758678 24.0749267 15.59802015 23.0546875 16.85546875 C 21.2378536 18.82885405 19.45535292 20.10823043 15.07226562 20.30664062 C 14.39619113 20.32661362 13.86330473 21.66737705 14.68945312 22.38671875 C 16.89701553 24.13039405 21.30445982 25.4388379 24.05664062 24.875 C 21.59331362 26.2979377 18.83100561 33.34967765 20.3828125 36.88671875 L 10.64453125 38.5859375 L 3.6015625 55.62695312 L 3.6015625 1.806640625 A 1.555973782 1.555973782 0 0 0 2.021484375 0.228515625 z M 39.03515625 3.00390625 C 39.20900755 2.89887455 40.7570835 4.2708581 40.7265625 4.828125 C 40.2831409 7.2799565 39.44797082 10.3533466 39.14257812 13.203125 C 34.79616913 12.6703393 32.62695905 13.54279955 29.08203125 15.86328125 C 28.89542605 15.96404305 28.5104307 14.80061227 28.734375 14.67773438 C 30.9364821 13.35352688 32.702699 11.731743 34.2578125 9.421875 C 34.8514678 9.5859677 35.46831077 9.5869877 35.99023438 9.2734375 C 36.62473897 8.8922529 37.07052957 8.162557075 37.22460938 7.169921875 C 37.32875608 6.496638375 37.35467598 5.949840475 37.31835938 5.451171875 C 38.12308248 4.512692475 38.64048415 3.97298105 39.03515625 3.00390625 z M 32.546875 6.25390625 C 32.3598197 6.72810425 32.27240305 7.1964527 32.35546875 7.625 C 32.42718475 7.9949282 32.6253102 8.30950355 32.8671875 8.58984375 C 31.8686121 10.06668625 30.23312507 11.65051363 28.60742188 12.82226562 C 28.32848408 10.63047972 28.82752822 8.760433125 30.48632812 7.416015625 C 31.03925813 6.967872825 31.7227095 6.57803835 32.546875 6.25390625 z M 45.35351562 14.27734375 C 45.32257363 14.57878205 44.93923638 15.38001278 44.84960938 15.70898438 L 21.8125 36.24023438 C 21.3959543 33.58306717 21.97499373 26.59584127 28.03320312 23.91210938 C 28.85514833 23.54951347 27.83028525 21.96439893 27.08203125 22.37695312 C 23.88839715 25.08486483 16.4538102 22.533443 16.5 21.8203125 C 21.95913279 21.3625012 21.5843912 19.9249433 25.2578125 17.328125 C 26.9205344 16.4763988 28.30950583 17.76807902 29.56445312 18.93945312 C 30.12317862 19.48726612 31.31700568 17.6797451 30.49023438 17.078125 C 31.26317348 16.5599219 32.72924885 15.63214885 33.87890625 15.29296875 C 38.67913105 13.86575425 39.53006703 16.47047325 45.35351562 14.27734375 z " style="color:#000000;fill:#ffffff;stroke-width:0.8918001652" />
    </g>
  </g>
</svg>
