<svg width="500" height="500" viewBox="0 0 500 500" fill="none" xmlns="http://www.w3.org/2000/svg">
<path d="M30.0938 475.703C26.1762 475.703 23 472.508 23 468.569C23 464.629 26.1762 461.434 30.0938 461.434H72.2914V311.56C72.2914 307.746 75.3319 304.635 79.1388 304.486L79.4257 304.48H150.769C154.612 304.48 157.747 307.497 157.897 311.275L157.903 311.56V461.434H207.194V276.569C207.194 272.737 210.235 269.613 214.042 269.463L214.329 269.457H285.671C289.515 269.457 292.649 272.488 292.8 276.283L292.806 276.569V461.434H342.097V198.73C342.097 194.904 345.138 191.784 348.945 191.634L349.231 191.629H420.574C424.514 191.629 427.709 194.808 427.709 198.73V461.434H469.906C473.824 461.434 477 464.629 477 468.569C477 472.508 473.824 475.703 469.906 475.703H30.0938ZM451.443 27.8417C454.387 30.433 456.119 34.1193 456.239 38.0202L456.246 38.4544V95.084C456.246 102.902 449.887 109.241 442.043 109.241C434.323 109.241 428.043 103.102 427.845 95.4552L427.84 95.084V77.9155C396.751 115.888 360.65 149.136 320.177 176.971C281.165 203.8 238.057 225.689 192.05 242.031C113.621 269.888 54.3841 271.97 51.9004 272.045C51.7539 272.051 51.6084 272.051 51.4628 272.051C43.8182 272.051 37.5078 265.992 37.2752 258.323C37.0373 250.512 43.1933 243.987 51.0269 243.744C51.5995 243.726 109.082 241.602 183.505 215.007C246.617 192.454 334.324 147.455 406.185 59.5956L408.358 56.9201L386.994 59.5817C379.22 60.547 372.113 55.0495 371.14 47.2895C370.183 39.6564 375.511 32.6837 383.097 31.5371L383.471 31.4855L440.282 24.4068C444.321 23.9024 448.389 25.1536 451.443 27.8417Z" fill="white"/>
</svg>
